# xmcd
#
# Track frame offsets: 
#        150
#        11877
#        29336
#        44134
#        63907
#        82489
#        97641
#        113245
#        129978
#        151638
#        171572
#
# Disc length: 2473 seconds
#
# Revision: 0
# Processed by: cddbd v1.5.2PL0 Copyright (c) Steve Scherf et al.
# Submitted via: ExactAudioCopyFreeDBPlugin 1.0
#
DISCID=8e09a70b
DTITLE=Connie Constance - English Rose
DYEAR=2019
DGENRE=No, thanks.
TTITLE0=English Rose
TTITLE1=Fast Cars
TTITLE2=I Want Out
TTITLE3=Bloody British Me
TTITLE4=Yesterday
TTITLE5=Bad Vibes
TTITLE6=Give and Take
TTITLE7=Blooming In Solitude
TTITLE8=Grey Area
TTITLE9=Let Go
TTITLE10=End Credits (Sober)
EXTD=
EXTT0=
EXTT1=
EXTT2=
EXTT3=
EXTT4=
EXTT5=
EXTT6=
EXTT7=
EXTT8=
EXTT9=
EXTT10=
PLAYORDER=
